<svg width="301" height="109" viewBox="0 0 301 109" fill="none" xmlns="http://www.w3.org/2000/svg">
<path d="M301 75.6588C301 77.1976 300.658 78.651 299.975 80.0188C298.267 83.0965 295.578 84.6353 291.906 84.6353C290.454 84.6353 289.088 84.2933 287.807 83.6094C284.562 81.9851 282.94 79.3349 282.94 75.6588C282.94 74.2055 283.281 72.7949 283.964 71.4271C285.672 68.1784 288.319 66.5541 291.906 66.5541C293.357 66.5541 294.766 66.8961 296.133 67.58C299.378 69.3753 301 72.0682 301 75.6588Z" fill="black"/>
<path d="M248.054 104.512C248.908 104.512 249.804 104.341 250.744 103.999C254.501 102.631 258.429 96.8604 262.528 86.6871L237.551 32.0588H232.171V28.8529H262.272V32.0588H254.458L269.957 67.8365L283.918 32.0588H274.312V28.8529H294.165C294.165 29.2804 294.123 29.7078 294.037 30.1353C293.866 31.4176 292.842 32.0588 290.963 32.0588C289.597 32.2298 288.188 33.4694 286.736 35.7776L267.523 85.6612C265.901 89.9357 264.193 93.569 262.4 96.5612C257.703 104.854 251.768 109 244.595 109C241.436 109 238.661 108.359 236.27 107.076C232.854 105.281 231.146 102.973 231.146 100.152C231.146 99.5533 231.232 98.9122 231.402 98.2282C232.256 95.578 234.22 94.2529 237.295 94.2529C238.746 94.2529 240.027 94.6376 241.137 95.4071C242.076 96.1765 243.144 98.0573 244.339 101.049C245.279 103.358 246.517 104.512 248.054 104.512Z" fill="black"/>
<path d="M201.03 104.512C201.884 104.512 202.781 104.341 203.72 103.999C207.478 102.631 211.406 96.8604 215.504 86.6871L190.527 32.0588H185.148V28.8529H215.248V32.0588H207.435L222.933 67.8365L236.895 32.0588H227.288V28.8529H247.142C247.142 29.2804 247.099 29.7078 247.014 30.1353C246.843 31.4176 245.818 32.0588 243.94 32.0588C242.573 32.2298 241.165 33.4694 239.713 35.7776L220.5 85.6612C218.877 89.9357 217.169 93.569 215.376 96.5612C210.68 104.854 204.745 109 197.572 109C194.413 109 191.637 108.359 189.246 107.076C185.831 105.281 184.123 102.973 184.123 100.152C184.123 99.5533 184.208 98.9122 184.379 98.2282C185.233 95.578 187.197 94.2529 190.271 94.2529C191.723 94.2529 193.004 94.6376 194.114 95.4071C195.053 96.1765 196.12 98.0573 197.316 101.049C198.255 103.358 199.493 104.512 201.03 104.512Z" fill="black"/>
<path d="M186.229 80.66C186.741 80.66 187.211 80.7027 187.638 80.7882C188.748 80.9592 189.303 82.0278 189.303 83.9941H151.133V80.66C157.452 80.66 160.697 78.4373 160.867 73.9918V32.3153H150.492V28.8529H160.867V27.1859C160.867 20.6886 162.234 15.2173 164.966 10.7718C169.407 3.59059 176.622 0 186.613 0C191.224 0 195.152 0.812157 198.397 2.43647C202.837 4.65922 205.057 7.65137 205.057 11.4129C205.057 12.1824 204.929 12.909 204.673 13.5929C203.563 16.3286 201.258 17.6965 197.757 17.6965C195.793 17.611 194.085 16.7561 192.633 15.1318C192.121 14.4478 191.011 12.1396 189.303 8.20706C187.936 4.95843 186.186 3.33412 184.051 3.33412C182.429 3.33412 181.105 3.93255 180.08 5.12941C178.116 7.60863 177.134 15.3027 177.134 28.2118V28.8529H191.608V32.3153H177.134V80.66H186.229Z" fill="black"/>
<path d="M151.732 80.66C152.244 80.66 152.714 80.7027 153.141 80.7882C154.251 80.9592 154.806 82.0278 154.806 83.9941H119.07V80.66C121.461 80.66 123.382 80.489 124.834 80.1471C127.652 79.3776 129.061 77.2404 129.061 73.7353V3.97529H119.07V0.641176H145.328V80.66H151.732Z" fill="black"/>
<path d="M95.2713 30.2635C88.44 30.52 84.7254 37.7439 84.1277 51.9353L92.3253 52.32C95.7409 52.491 98.3027 52.2773 100.011 51.6788C102.401 50.7384 103.597 48.2592 103.597 44.2412C103.512 35.0937 100.736 30.4345 95.2713 30.2635ZM119.224 70.7859C118.711 72.1537 118.028 73.4788 117.174 74.7612C112.819 81.7714 105.646 85.2765 95.6556 85.2765C90.0197 85.2765 84.9816 84.1224 80.5413 81.8141C71.2336 76.9412 66.5797 68.3067 66.5797 55.9106C66.5797 48.302 68.6291 41.9329 72.7279 36.8035C78.1076 30.2208 85.6221 26.9294 95.2713 26.9294C100.566 26.9294 105.305 27.8271 109.489 29.6224C116.918 32.9565 120.633 38.2569 120.633 45.5235C120.633 46.9769 120.376 48.302 119.864 49.4988C117.644 54.2863 109.66 56.4663 95.9117 56.0388L84.1277 55.6541C84.2131 60.6125 84.6401 64.8871 85.4086 68.4776C87.3726 77.1976 91.7702 81.5576 98.6016 81.5576C100.736 81.5576 102.828 81.1729 104.878 80.4035C110.001 78.5227 113.759 74.9749 116.15 69.76L119.224 70.7859Z" fill="black"/>
<path d="M44.4463 83.9941L42.6531 71.94C42.2261 73.0514 41.7138 74.12 41.116 75.1459C37.2734 81.8996 31.3814 85.2765 23.44 85.2765C18.658 85.2765 14.3031 83.8231 10.3751 80.9165C3.45836 75.8725 0 68.0502 0 57.4494C0 48.9004 2.22018 41.8047 6.66054 36.1624C11.784 29.9216 18.4019 26.8012 26.5141 26.8012C32.5769 26.8012 37.7857 28.682 42.1407 32.4435V3.97529H30.4848V0.641176H58.4078V80.5318H64.2998C64.8976 80.5318 65.4099 80.5745 65.8369 80.66C66.8616 80.9165 67.3739 82.0278 67.3739 83.9941H44.4463ZM17.548 55.9106C17.548 59.1592 17.7614 62.1086 18.1884 64.7588C19.64 74.5047 23.3546 79.3776 29.332 79.3776C31.1252 79.3776 32.7903 78.9075 34.3274 77.9671C39.7071 74.462 42.3969 66.2976 42.3969 53.4741C42.3969 50.5675 42.2261 47.8318 41.8845 45.2671C40.4329 35.7776 36.633 31.0329 30.4848 31.0329C28.7769 31.0329 27.1545 31.4604 25.6175 32.3153C20.2378 35.5639 17.548 43.429 17.548 55.9106Z" fill="black"/>
</svg>

